<svg width="8.5mm" height="6.25mm" version="1.1" viewBox="0 0 68.138 50.718" xmlns="http://www.w3.org/2000/svg">
 <g transform="translate(-.34737 -.5785)">
  <path d="m41.744 40.303-17.05 2.8892c-0.34131-2.0294-0.62971-4.0402-0.85196-5.9849h17.645s0.0529 1.2065 0.25664 3.0956z" opacity=".1" stroke-width=".26458"/>
  <path d="m35.19 0.57854a7.1279 7.1279 0 0 0-0.30427 3.0507 3.6856 3.6856 0 0 0 0.50271 1.4182 2.3416 2.3416 0 0 0 1.0795 0.96309 5.1964 5.1964 0 0 0 1.4711 0.26458c0.508 0.0397 1.0239 0.0503 1.5425 0.0635a25.096 25.096 0 0 1 3.1353 0.19579 8.7709 8.7709 0 0 1 3.0665 0.95779 6.2151 6.2151 0 0 1 1.8785 1.5875 3.6063 3.6063 0 0 1 0.43392 0.75936 8.7762 8.7762 0 0 1 0.48948 1.5452c0.12435 0.52917 0.22225 1.0292 0.32014 1.5399 0.19315 1.0239 0.37306 2.0373 0.62442 3.0242a9.0673 9.0673 0 0 0 1.0954 2.7543 3.4078 3.4078 0 0 0 0.96838 0.99483 2.7887 2.7887 0 0 0 0.61912 0.29898 5.2731 5.2731 0 0 0 0.6985 0.20108 10.546 10.546 0 0 0 2.9951 0.10848 24.204 24.204 0 0 1 3.1459-0.127 6.186 6.186 0 0 1 1.6007 0.28311 4.6805 4.6805 0 0 1 1.442 0.76994 5.207 5.207 0 0 1 1.1007 1.1959 4.4979 4.4979 0 0 1 0.57414 1.5081 9.8875 9.8875 0 0 1 0.0344 3.1459 16.984 16.984 0 0 1-0.69056 3.0401 19.143 19.143 0 0 0 0.50535-3.0612 9.5541 9.5541 0 0 0-0.17992-3.048 4.3392 4.3392 0 0 0-0.58472-1.36 4.5297 4.5297 0 0 0-3.8285-1.8785 26.522 26.522 0 0 0-3.0639 0.21431 11.322 11.322 0 0 1-3.2015-0.0609 6.0378 6.0378 0 0 1-0.79375-0.21431 3.4819 3.4819 0 0 1-0.79375-0.37306 4.1884 4.1884 0 0 1-1.1959-1.2065 9.7658 9.7658 0 0 1-1.2197-2.9924c-0.26459-1.0266-0.43392-2.0585-0.61913-3.0745a15.61 15.61 0 0 0-0.73819-2.9289 2.9104 2.9104 0 0 0-0.33073-0.60061 5.7838 5.7838 0 0 0-0.47625-0.54769 5.506 5.506 0 0 0-1.143-0.87841 8.5381 8.5381 0 0 0-2.8152-0.96573 29.086 29.086 0 0 0-3.0639-0.31221c-0.52916-0.0344-1.0398-0.0714-1.5637-0.13758a5.2467 5.2467 0 0 1-1.5531-0.39688 2.1828 2.1828 0 0 1-0.6694-0.48419 3.3893 3.3893 0 0 1-0.48683-0.64558 3.8761 3.8761 0 0 1-0.46567-1.5161 6.9294 6.9294 0 0 1 0.45773-3.0745z" fill="#263238" stroke-width=".26458"/>
  <polygon transform="matrix(.26458 0 0 .26458 -115.52 -14.503)" points="682.24 174.66 662.35 185.58 657.9 164.8" fill="#fff"/>
  <g stroke-width=".26458">
   <path d="m64.993 31.709-2.5665 1.4817c-0.87048 0.50006-1.7489 1.016-2.6458 1.5081l-0.13494 0.0741-0.0344-0.15081-0.60325-2.7464c-0.20109-0.91546-0.38365-1.8336-0.57944-2.749l-0.0476-0.22489 0.21167 0.0873 1.6298 0.67469 1.614 0.6932zm0 0-3.2888-1.2568-1.6087-0.61118-1.5875-0.62971 0.1614-0.13494c0.19844 0.91546 0.40746 1.8283 0.59796 2.7464l0.57414 2.7517-0.16668-0.0794c0.85989-0.47096 1.7383-0.91546 2.6194-1.3785z" fill="#dbdbdb"/>
   <path d="m57.648 35.123-3.8312 2.0108s-7.5353-2.1167-13.142-2.0823l0.65616 1.8283s14.96 3.7677 15.449 3.4528c0.48948-0.31486 0.86784-5.2096 0.86784-5.2096z" fill="#fff"/>
   <path d="m57.648 35.123-3.8312 2.0585h-0.0397c-2.1484-0.55298-4.3233-1.0186-6.514-1.3811-1.0954-0.17462-2.1934-0.33337-3.2967-0.44979-1.1033-0.11641-2.2093-0.17727-3.3152-0.17727l0.11907-0.16933 0.66145 1.8256-0.0926-0.082 5.1356 1.2753c1.7119 0.42069 3.4396 0.82815 5.1435 1.2356 0.85725 0.20108 1.7172 0.39952 2.577 0.58737 0.43128 0.0926 0.86255 0.18521 1.2938 0.26459 0.21696 0.0397 0.43127 0.0794 0.64823 0.11112 0.10848 0.0159 0.21695 0.0344 0.32543 0.0423a1.0583 1.0583 0 0 0 0.15875 0h0.0714c0.0291 0 0.0212 0 0.0397-0.0159a0.79375 0.79375 0 0 0 0.14023-0.26458c0.037-0.10055 0.0661-0.20373 0.0953-0.30957 0.0582-0.21166 0.10319-0.42598 0.14552-0.64293 0.0847-0.43127 0.15346-0.86519 0.21431-1.3018 0.13494-0.85196 0.23548-1.7277 0.32015-2.6062zm0 0c-0.0635 0.88106-0.14023 1.7595-0.24342 2.6458-0.0503 0.43921-0.10848 0.87577-0.18256 1.3229-0.037 0.2196-0.0767 0.43656-0.12965 0.65352-0.0265 0.10848-0.0556 0.21431-0.09 0.32279a0.83608 0.83608 0 0 1-0.17198 0.3175 0.17198 0.17198 0 0 1-0.10847 0.0503h-0.26198c-0.11113 0-0.22225-0.0238-0.33338-0.037-0.2196-0.0318-0.43656-0.0661-0.65352-0.10583-0.43656-0.0767-0.87048-0.1614-1.3018-0.24871-0.86519-0.17462-1.7277-0.35983-2.5903-0.55033-1.7224-0.381-3.4396-0.79375-5.1541-1.2012s-3.4396-0.82815-5.1409-1.2594l-0.0661-0.0185-0.0238-0.0635-0.65353-1.8309-0.0609-0.16933h0.17992c1.1165 0 2.2304 0.0794 3.3417 0.19315 1.1112 0.11377 2.2093 0.28046 3.3073 0.4736 1.098 0.19315 2.1854 0.42069 3.2702 0.6694 1.0848 0.24871 2.1775 0.48418 3.2358 0.80433h-0.0397z" fill="#dbdbdb"/>
   <path d="m40.392 14.041c-2.2384-0.71702-3.0798-0.0635-7.4083-3.5454-5.1435-4.1169-10.999-8.4164-12.769-6.4161-1.7701 2.0002 9.0488 6.2389 9.0488 6.2389s-5.1144-1.7542-5.5007-0.3466c-0.38629 1.4076 4.8974 1.6193 6.9453 2.5347 3.8814 1.733 5.4901 3.3867 5.67 3.3867 3.1776-0.0344 4.0137-1.8521 4.0137-1.8521z" fill="#f21b3f"/>
  </g>
  <g transform="matrix(.26458 0 0 .26458 -115.52 -14.503)" opacity=".1">
   <path d="m589.26 107.88c-8.46-2.71-11.64-0.24-28-13.4-19.44-15.56-41.57-31.81-48.26-24.25s34.2 23.58 34.2 23.58-19.33-6.63-20.79-1.31 18.51 6.12 26.25 9.58c14.67 6.55 20.75 12.8 21.43 12.8 12.01-0.13 15.17-7 15.17-7z"/>
  </g>
  <g stroke-width=".26458">
   <path d="m58.259 39.319s1.5002 2.1722 0.67998 4.7043c-0.8202 2.5321-2.8046 3.0824-2.3601 5.2599 0 0-4.1698-2.5082-3.6433-8.8768z" fill="#455a64"/>
   <path d="m56.349 40.285c1.2224 0.91546 1.6298 4.0561-0.31221 6.1066-2.7199 2.8707-2.6458 4.9054-2.6458 4.9054s-3.8576-2.9104-3.6433-6.3818 1.7595-5.1091 1.7595-5.1091z" fill="#37474f"/>
   <path d="m55.561 39.896a5.5721 5.5721 0 0 1-1.3229 4.2519c-1.7198 2.0611-5.0271 2.3812-5.7494 5.2917 0 0-3.0189-3.5772-0.67204-8.9614z" fill="#455a64"/>
   <path d="m41.17 13.673c3.3099 1.5161 3.937 6.8157 5.7997 7.7761 1.8627 0.96044 9.1149 3.6063 10.298 3.3443 1.1827-0.26194 1.8362-2.6882 4.7863-2.9501 2.9501-0.26193 6.2256 1.8997 6.4214 3.474s-2.4897 2.622-2.4897 2.622 1.5266 0.84402 1.6378 1.7912c0.0873 0.74348-0.4789 2.5347-1.9209 2.3601-1.442-0.17463-6.2098-3.1671-8.4455-3.466s-4.8075 2.0532-8.1703 1.5293c-3.3628-0.52388-4.9821-2.7966-7.5168-2.0982s-2.2278 8.2603 0 8.3899c2.2278 0.12964 5.1118-0.91811 6.7733-0.43657 1.6616 0.48155 3.6274 2.9713 5.4187 3.0162 1.7912 0.045 4.4132-0.34925 4.8498 0s-2.3151 2.4897-3.7042 2.884c-1.3891 0.39423-9.9616-1.7039-12.454-2.1405-2.4924-0.43656-10.094-1.3996-15.346-0.67733-5.252 0.72231-8.5222-5.0482-9.4377-8.6545-0.91546-3.6063 1.0583-13.174 4.1936-15.468 1.487-1.0848 5.2467-0.48684 8.98-0.98425 4.1884-0.56092 7.964-1.397 10.327-0.31221z" fill="#f21b3f"/>
   <path d="m39.043 36.297 0.57679-9.0673-32.123-16.695s-2.6617 6.7125 2.5717 10.417c0 0-2.1511 5.5562 2.503 8.0592 0 0-0.47625 4.7625 4.4979 6.0193 0 0-0.45508 3.1009 3.3629 4.2651 3.8179 1.1642 18.611-2.9977 18.611-2.9977z" fill="#455a64"/>
   <path d="m39.619 27.23-0.57415 9.0673-0.0609 0.0185h-0.074l-0.0741 0.0212-0.11906 0.0317-0.18256 0.0503-0.71173 0.1905c-3.175 0.83608-11.671 2.9104-14.483 2.0611-3.4846-1.0583-3.0692-3.892-3.0692-3.892-4.5402-1.1404-4.1063-5.498-4.1063-5.498-4.2492-2.2939-2.2834-7.3634-2.2834-7.3634-4.3021-3.0427-2.7675-8.3132-2.4156-9.3424z" fill="#37474f"/>
   <path d="m40.178 27.64s-10.438-9.6202-14.478-6.1939c-1.233 1.0583 1.2647 4.482 3.7042 5.6647 0 0-7.3025 0.95779-7.2073 4.4979 0.11906 4.4979 8.9641 2.7384 8.9641 2.7384s-3.9952 2.9872-2.5082 4.7625c2.3098 2.7543 12.068-3.5825 12.068-3.5825s-3.6195-0.74612-3.1512-3.5057c0.46831-2.7596 1.9209-4.1751 2.6088-4.3815z" fill="#455a64"/>
   <path d="m40.937 28.095s-8.0671-5.0906-10.533-2.3363c-0.75142 0.84402 1.3044 2.9845 3.1036 3.5692 0 0-4.9662 1.36-4.5614 3.8047 0.51064 3.1036 6.4664 1.0425 6.4664 1.0425s-2.5241 2.4977-1.2806 3.5348c1.7013 1.4208 6.8792-2.2966 6.8792-2.2966s-1.4473-1.5055-1.3864-3.4608c0.0609-1.9553 0.85725-3.6512 1.3123-3.8576z" fill="#37474f"/>
   <path d="m67.98 30.453c0.44185 0.52917-0.0714 1.4182-0.72761 1.6828-0.65616 0.26459-3.7703 0.15611-5.0482-0.14816s-4.1169-2.6062-5.4928-2.704c-1.3758-0.0979-4.2942 2.0638-6.8183 1.8997-2.5241-0.16404-6.0854-2.7093-7.8317-2.5876-2.3945 0.16404-1.606 6.6516-0.59002 6.9797 1.016 0.32808 5.08-0.55563 6.4876-0.32809 1.4076 0.22755 4.3259 2.9501 5.4742 3.1459 1.1483 0.19579 4.7837-0.35983 5.5377 0.16404 0.75407 0.52388 0.0661 1.6722-0.75406 2.0002-0.82021 0.32809-4.8498 0.16404-6.0616-0.26458-1.2118-0.42863-3.2782-2.8178-4.7625-3.048-1.4843-0.23019-5.3102 0.9816-7.112-0.0344-1.8018-1.016-3.1062-9.4562 1.5399-10.618 1.0583-0.26458 6.4876 2.6458 7.7999 2.8178s5.043-2.5453 7.6359-2.1405c1.2065 0.18785 3.7465 2.1458 5.7256 2.831 1.2118 0.41539 4.5508-0.18256 4.998 0.35189z" fill="#f21b3f"/>
   <path d="m67.98 30.453c0.44185 0.52917-0.0714 1.4182-0.72761 1.6828-0.65616 0.26459-3.7703 0.15611-5.0482-0.14816s-4.1169-2.6062-5.4928-2.704c-1.3758-0.0979-4.2942 2.0638-6.8183 1.8997-2.5241-0.16404-6.0854-2.7093-7.8317-2.5876-2.3945 0.16404-1.606 6.6516-0.59002 6.9797 1.016 0.32808 5.08-0.55563 6.4876-0.32809 1.4076 0.22755 4.3259 2.9501 5.4742 3.1459 1.1483 0.19579 4.7837-0.35983 5.5377 0.16404 0.75407 0.52388 0.0661 1.6722-0.75406 2.0002-0.82021 0.32809-4.8498 0.16404-6.0616-0.26458-1.2118-0.42863-3.2782-2.8178-4.7625-3.048-1.4843-0.23019-5.3102 0.9816-7.112-0.0344-1.8018-1.016-3.1062-9.4562 1.5399-10.618 1.0583-0.26458 6.4876 2.6458 7.7999 2.8178s5.043-2.5453 7.6359-2.1405c1.2065 0.18785 3.7465 2.1458 5.7256 2.831 1.2118 0.41539 4.5508-0.18256 4.998 0.35189z" fill="#fff" opacity=".6"/>
   <path d="m42.58 23.92c0.72495-1.4764 0.26458-6.7971-3.7571-7.2231-1.8971-0.20109-0.34131 2.1616-0.34131 2.1616a6.35 6.35 0 0 0-3.765-1.3652c-2.3125-0.0714-3.8074 0.51329-3.855 1.3229-0.0476 0.80962 3.4396 1.6378 3.4396 1.6378s-3.4581 1.1642-3.6512 2.6458c-0.10318 0.79375 1.1483 1.2515 3.5057 0.14552 2.3574-1.106 8.4243 0.67469 8.4243 0.67469z" fill="#f21b3f"/>
  </g>
  <g transform="matrix(.26458 0 0 .26458 -115.52 -14.503)" opacity=".6">
   <path d="m597.53 145.22c2.74-5.58 1-25.69-14.2-27.3-7.17-0.76-1.29 8.17-1.29 8.17a24 24 0 0 0-14.23-5.16c-8.74-0.27-14.39 1.94-14.57 5s13 6.19 13 6.19-13.07 4.4-13.8 10c-0.39 3 4.34 4.73 13.25 0.55s31.84 2.55 31.84 2.55z" fill="#fff"/>
  </g>
  <g stroke-width=".26458">
   <path d="m40.535 21.139a2.839 2.839 0 0 0-2.4553 3.003c0.0688 1.18 1.0583 2.712 2.9104 2.5665 1.942-0.15346 2.7517-1.6457 2.5929-3.1088-0.13229-1.18-1.3362-2.6749-3.048-2.4606z" fill="#fff"/>
   <path d="m40.638 22.11a1.8521 1.8521 0 0 0-1.5875 1.9526 1.7992 1.7992 0 1 0 3.5772-0.3519c-0.09-0.76729-0.87312-1.7436-1.9897-1.6007z" fill="#263238"/>
   <path d="m33.992 15.051c-2.7702-0.52917-3.6804 0.35983-9.3424-3.175-6.6966-4.1857-14.288-8.4878-16.113-5.8552-1.8256 2.6326 11.663 6.1648 11.663 6.1648s-6.35-1.3705-6.6146 0.35983c-0.26458 1.7304 6.0669 1.2436 8.6334 2.0452 4.871 1.5187 7.022 3.265 7.2364 3.2385 3.7968-0.49212 4.5376-2.7781 4.5376-2.7781z" fill="#f21b3f"/>
   <path d="m63.265 26.984a3.847 3.847 0 0 0 1.8018-0.15875c0.82021-0.34396 1.3785-1.2012 0.72232-1.9606-1.2779-1.4817-3.3443 0.84932-2.5241 2.1193z" fill="#263238" style="mix-blend-mode:multiply"/>
   <path d="m62.993 30.103a6.1542 6.1542 0 0 0-2.7728-3.2676 6.3182 6.3182 0 0 0-2.0426-0.6985 5.5007 5.5007 0 0 0-2.1405 0.0503 35.097 35.097 0 0 0-4.191 1.2726c-1.3891 0.48154-2.7914 0.95779-4.2333 1.3229-2.8654 0.75142-5.9452 1.016-8.9085 0.21167a10.022 10.022 0 0 1-2.069-0.97367c-0.64823-0.38364-1.2621-0.79375-1.868-1.225-1.2092-0.84931-2.3812-1.7198-3.6142-2.4977a17.007 17.007 0 0 0-3.8523-1.905 9.181 9.181 0 0 0-2.069-0.42069 8.5751 8.5751 0 0 0-2.1167 0.10319 18.105 18.105 0 0 0-4.1381 1.2277c-1.3441 0.55298-2.6749 1.1933-4.0719 1.7119a14.195 14.195 0 0 1-4.3709 0.97896 12.02 12.02 0 0 1-2.2463-0.11113l-0.55298-0.0926-0.54769-0.11907c-0.18256-0.037-0.36512-0.0979-0.54769-0.14552-0.18256-0.0476-0.35983-0.11641-0.52917-0.1905a9.2366 9.2366 0 0 1-3.5375-2.6908 13.586 13.586 0 0 1-2.2251-3.81 13.629 13.629 0 0 0 1.0583 1.9262 13.959 13.959 0 0 0 1.3229 1.741 8.8979 8.8979 0 0 0 3.519 2.4606c0.16669 0.0635 0.33867 0.11377 0.508 0.16669 0.16933 0.0529 0.34396 0.0952 0.52917 0.12435l0.52917 0.10319 0.52917 0.0767a11.295 11.295 0 0 0 2.1564 0.0529 13.716 13.716 0 0 0 4.1778-1.0583c1.3467-0.54504 2.6591-1.2065 4.027-1.7833a18.746 18.746 0 0 1 4.2862-1.3229 8.9006 8.9006 0 0 1 2.286-0.12435 9.7684 9.7684 0 0 1 2.2463 0.4445 17.462 17.462 0 0 1 4.0693 1.987c1.2568 0.79375 2.4421 1.6854 3.6354 2.5294 1.1933 0.84402 2.4077 1.6722 3.7042 2.1167 0.32015 0.10319 0.67998 0.17198 1.0292 0.24871 0.34925 0.0767 0.70379 0.127 1.0583 0.1614a15.01 15.01 0 0 0 2.1537 0.09 21.206 21.206 0 0 0 2.159-0.17992c0.71702-0.10054 1.4314-0.23548 2.1405-0.39688 1.4208-0.32014 2.8205-0.75406 4.2333-1.1986 0.6985-0.22225 1.4023-0.44714 2.1167-0.65352a16.669 16.669 0 0 1 2.1696-0.50535 5.9796 5.9796 0 0 1 2.2437 0.037 6.5273 6.5273 0 0 1 2.0876 0.79375 6.1119 6.1119 0 0 1 2.6696 3.4316z" fill="#263238"/>
  </g>
 </g>
</svg>
